<?xml version="1.0"?>
<svg width="310" height="76" xmlns="http://www.w3.org/2000/svg" xmlns:svg="http://www.w3.org/2000/svg">
 <defs>
  <clipPath id="clip0_288_1258">
   <rect fill="white" height="75.8" id="svg_1" width="309.2"/>
  </clipPath>
 </defs>
 <g class="layer">
  <title>Layer 1</title>
  <path d="m41.9,52c-3.4,1.5 -7.6,2.3 -12.6,2.3c-14.7,0 -22,-7.5 -22,-22.4c0,-14.1 7.5,-21.2 22.4,-21.2c4.6,0 8.6,0.7 12.2,2.1l0,7.2c-3.6,-1.6 -7.5,-2.4 -11.6,-2.4c-10,0 -15,4.8 -15,14.3c0,10.3 4.7,15.5 14.1,15.5c1.4,0 3,-0.2 4.8,-0.7l0,-12.5l7.7,0l0,17.8z" fill="#2db8e8" id="svg_3"/>
  <path d="m45.3,32.6c0,-14.6 7,-21.9 20.9,-21.9c13.7,0 20.6,7.3 20.6,21.9c0,14.5 -6.9,21.8 -20.6,21.8c-13.3,-0.1 -20.3,-7.3 -20.9,-21.8zm20.9,14.8c8.4,0 12.6,-5 12.6,-15c0,-9.8 -4.2,-14.8 -12.6,-14.8c-8.6,0 -12.9,4.9 -12.9,14.8c0,10 4.3,15 12.9,15z" fill="#2db8e8" id="svg_4"/>
  <path d="m127.7,11l0,6.9l-11.9,0l0,36.1l-7.7,0l0,-36.1l-12,0l0,-6.9l31.6,0z" fill="#1762bc" id="svg_5" transform="matrix(1, 0, 0, 1, 0, 0)"/>
  <path d="m126.9,54l0,-43l18.9,0c8.5,0 12.7,3.8 12.7,11.5c0,5.2 -3.3,9.5 -9.9,12.9l13.2,18.6l-10,0l-12.7,-18.7l0,-3.6c7.6,-1.3 11.3,-4.3 11.3,-8.9c0,-3.2 -1.7,-4.8 -5.2,-4.8l-10.6,0l0,36l-7.7,0z" fill="#1762bc" id="svg_6" transform="matrix(1, 0, 0, 1, 0, 0)"/>
  <path d="m163,32.6c0,-14.6 7,-21.9 20.9,-21.9c13.7,0 20.6,7.3 20.6,21.9c0,14.5 -6.9,21.8 -20.6,21.8c-13.3,-0.1 -20.3,-7.3 -20.9,-21.8zm20.9,14.8c8.4,0 12.6,-5 12.6,-15c0,-9.8 -4.2,-14.8 -12.6,-14.8c-8.6,0 -12.9,4.9 -12.9,14.8c0,10 4.3,15 12.9,15z" fill="#1762bc" id="svg_7" transform="matrix(1, 0, 0, 1, 0, 0)"/>
  <path d="m209.4,54l0,-43l7.7,0l23.1,30.7l0,-30.7l7.4,0l0,43l-7.7,0l-23.1,-31.4l0,31.4l-7.4,0z" fill="#1762bc" id="svg_8" transform="matrix(1, 0, 0, 1, 0, 0)"/>
  <path d="m261.7,11l-7.7,0l0,43l7.7,0l0,-43z" fill="#1762bc" id="svg_9" transform="matrix(1, 0, 0, 1, 0, 0)"/>
  <path d="m301.2,52.2c-3.6,1.4 -7.7,2.1 -12.2,2.1c-14.9,0 -22.4,-7.5 -22.4,-22.4c0,-14.1 7.5,-21.2 22.4,-21.2c4.6,0 8.6,0.7 12.2,2.1l0,7.2c-3.6,-1.6 -7.5,-2.4 -11.6,-2.4c-10,0 -15,4.8 -15,14.3c0,10.3 5,15.5 15,15.5c4.2,0 8,-0.8 11.6,-2.4l0,7.2z" fill="#1762bc" id="svg_10" transform="matrix(1, 0, 0, 1, 0, 0)"/>
  <path d="m8.1,70.5l0,-7.2l3.5,0c1.6,0 2.4,0.6 2.4,1.9c0,0.9 -0.6,1.6 -1.8,2.2l2.4,3.1l-1.8,0l-2.3,-3.1l0,-0.6c1.4,-0.2 2,-0.7 2,-1.5c0,-0.5 -0.3,-0.8 -1,-0.8l-1.9,0l0,6l-1.5,0z" fill="#1d2439" id="svg_11"/>
  <path d="m16.1,67c0,-2.4 1.3,-3.7 3.9,-3.7c2.5,0 3.8,1.2 3.8,3.7c0,2.4 -1.3,3.6 -3.8,3.6c-2.5,0 -3.8,-1.2 -3.9,-3.6zm3.8,2.4c1.5,0 2.3,-0.8 2.3,-2.5c0,-1.7 -0.8,-2.5 -2.3,-2.5c-1.6,0 -2.4,0.8 -2.4,2.5c0.1,1.7 0.9,2.5 2.4,2.5z" fill="#1d2439" id="svg_12"/>
  <path d="m26.2,70.6l0,-7.2l3.6,0c1.5,0 2.2,0.6 2.2,1.7c0,0.8 -0.5,1.4 -1.4,1.8c1,0.2 1.5,0.7 1.5,1.6c0,1.4 -0.8,2.1 -2.4,2.1l-3.5,0zm3.4,-1.2c0.6,0 0.9,-0.3 0.9,-0.9c0,-0.8 -0.5,-1.1 -1.4,-1.1l-0.4,0l0,-0.9c1.2,-0.2 1.8,-0.6 1.8,-1.4c0,-0.4 -0.3,-0.6 -0.8,-0.6l-2.1,0l0,4.9l2,0z" fill="#1d2439" id="svg_13"/>
  <path d="m34.1,67c0,-2.4 1.3,-3.7 3.9,-3.7c2.5,0 3.8,1.2 3.8,3.7c0,2.4 -1.3,3.6 -3.8,3.6c-2.5,0 -3.8,-1.2 -3.9,-3.6zm3.9,2.4c1.5,0 2.3,-0.8 2.3,-2.5c0,-1.7 -0.8,-2.5 -2.3,-2.5c-1.6,0 -2.4,0.8 -2.4,2.5c0,1.7 0.8,2.5 2.4,2.5z" fill="#1d2439" id="svg_14"/>
  <path d="m49.2,63.3l0,1.2l-2.2,0l0,6.1l-1.4,0l0,-6.1l-2.2,0l0,-1.2l5.8,0z" fill="#1d2439" id="svg_15"/>
  <path d="m52.5,63.3l-1.4,0l0,7.2l1.4,0l0,-7.2z" fill="#1d2439" id="svg_16"/>
  <path d="m55,67c0,-2.4 1.3,-3.7 3.9,-3.7c2.5,0 3.8,1.2 3.8,3.7c0,2 -0.8,3.2 -2.4,3.6l1.2,1.4l-1.1,0.8l-1.7,-2.1c-2.4,-0.1 -3.6,-1.3 -3.7,-3.7zm3.8,2.4c1.5,0 2.3,-0.8 2.3,-2.5c0,-1.7 -0.8,-2.5 -2.3,-2.5c-1.6,0 -2.4,0.8 -2.4,2.5c0,1.7 0.8,2.5 2.4,2.5z" fill="#1d2439" id="svg_17"/>
  <path d="m65.1,67.7l0,-4.4l1.4,0l0,4.4c0,1.2 0.6,1.7 1.9,1.7c1.3,0 1.9,-0.6 1.9,-1.7l0,-4.4l1.4,0l0,4.4c0,1.9 -1.1,2.9 -3.3,2.9c-2.2,0 -3.3,-1 -3.3,-2.9z" fill="#1d2439" id="svg_18"/>
  <path d="m79.6,63.3l0,1.2l-3.8,0l0,1.8l3.6,0l0,1.2l-3.6,0l0,1.9l3.9,0l0,1.2l-5.3,0l0,-7.3l5.2,0z" fill="#1d2439" id="svg_19"/>
  <path d="m90.9,63.3l0,1.2l-3.9,0l0,1.8l3.7,0l0,1.2l-3.7,0l0,1.9l4,0l0,1.2l-5.4,0l0,-7.3l5.3,0z" fill="#1d2439" id="svg_20"/>
  <path d="m98.4,63.3l0,1.2l-2.2,0l0,6.1l-1.4,0l0,-6.1l-2.2,0l0,-1.2l5.8,0z" fill="#1d2439" id="svg_21"/>
  <path d="m109.9,70.3c-0.7,0.2 -1.4,0.4 -2.3,0.4c-2.8,0 -4.1,-1.3 -4.1,-3.8c0,-2.4 1.4,-3.6 4.1,-3.6c0.8,0 1.6,0.1 2.3,0.4l0,1.2c-0.7,-0.3 -1.4,-0.4 -2.1,-0.4c-1.8,0 -2.8,0.8 -2.8,2.4c0,1.7 0.9,2.6 2.8,2.6c0.8,0 1.5,-0.1 2.1,-0.4l0,1.2z" fill="#1d2439" id="svg_22"/>
  <path d="m112.1,67c0,-2.4 1.3,-3.7 3.9,-3.7c2.5,0 3.8,1.2 3.8,3.7c0,2.4 -1.3,3.6 -3.8,3.6c-2.5,0 -3.8,-1.2 -3.9,-3.6zm3.9,2.4c1.5,0 2.3,-0.8 2.3,-2.5c0,-1.7 -0.8,-2.5 -2.3,-2.5c-1.6,0 -2.4,0.8 -2.4,2.5c0,1.7 0.8,2.5 2.4,2.5z" fill="#1d2439" id="svg_23"/>
  <path d="m122.2,70.6l0,-7.3l1.5,0l2.6,5.5l2.5,-5.5l1.4,0l0,7.3l-1.3,0l0,-5.1l-2.1,5.1l-1.2,0l-2.1,-5.1l0,5.1l-1.3,0z" fill="#1d2439" id="svg_24"/>
  <path d="m133,70.6l0,-7.2l3.4,0c1.6,0 2.4,0.7 2.4,2c0,1.5 -1.1,2.4 -3.2,2.7l-0.2,-1.2c1.3,-0.2 1.9,-0.7 1.9,-1.4c0,-0.6 -0.3,-0.9 -1,-0.9l-1.9,0l0,6l-1.4,0z" fill="#1d2439" id="svg_25"/>
  <path d="m140.5,67c0,-2.4 1.3,-3.7 3.9,-3.7c2.5,0 3.8,1.2 3.8,3.7c0,2.4 -1.3,3.6 -3.8,3.6c-2.5,0 -3.8,-1.2 -3.9,-3.6zm3.9,2.4c1.5,0 2.3,-0.8 2.3,-2.5c0,-1.7 -0.8,-2.5 -2.3,-2.5c-1.6,0 -2.4,0.8 -2.4,2.5c0,1.7 0.8,2.5 2.4,2.5z" fill="#1d2439" id="svg_26"/>
  <path d="m150.5,70.3l0,-1.3c0.8,0.3 1.6,0.4 2.6,0.4c1.2,0 1.8,-0.4 1.8,-1.1c0,-0.5 -0.4,-0.8 -1.1,-0.8l-1.2,0c-1.6,0 -2.4,-0.7 -2.4,-2c0,-1.5 1.1,-2.2 3.4,-2.2c0.9,0 1.7,0.1 2.4,0.4l0,1.2c-0.8,-0.3 -1.6,-0.4 -2.4,-0.4c-1.3,0 -1.9,0.4 -1.9,1.1c0,0.5 0.3,0.8 0.9,0.8l1.2,0c1.7,0 2.5,0.7 2.5,2c0,1.5 -1.1,2.3 -3.2,2.3c-1,-0.1 -1.9,-0.2 -2.6,-0.4z" fill="#1d2439" id="svg_27"/>
  <path d="m159.4,70.6l-1.5,0l3.3,-7.3l1.5,0l3.3,7.3l-1.5,0l-0.9,-2l-2.5,0l0.4,-1.2l1.6,0l-1.2,-2.7l-2.5,5.9z" fill="#1d2439" id="svg_28"/>
  <path d="m168.1,70.6l0,-7.3l1.4,0l4,5.3l0,-5.3l1.4,0l0,7.3l-1.4,0l-4.1,-5.4l0,5.4l-1.3,0z" fill="#1d2439" id="svg_29"/>
  <path d="m182.6,63.3l0,1.2l-2.2,0l0,6.1l-1.4,0l0,-6.1l-2.2,0l0,-1.2l5.8,0z" fill="#1d2439" id="svg_30"/>
  <path d="m184.4,70.3l0,-1.3c0.8,0.3 1.6,0.4 2.6,0.4c1.2,0 1.8,-0.4 1.8,-1.1c0,-0.5 -0.4,-0.8 -1.1,-0.8l-1.2,0c-1.6,0 -2.4,-0.7 -2.4,-2c0,-1.5 1.1,-2.2 3.4,-2.2c0.9,0 1.7,0.1 2.4,0.4l0,1.2c-0.8,-0.3 -1.6,-0.4 -2.4,-0.4c-1.3,0 -1.9,0.4 -1.9,1.1c0,0.5 0.3,0.8 0.9,0.8l1.2,0c1.7,0 2.5,0.7 2.5,2c0,1.5 -1.1,2.3 -3.2,2.3c-1,-0.1 -1.8,-0.2 -2.6,-0.4z" fill="#1d2439" id="svg_31"/>
  <path d="m204.8,63.3l0,1.2l-3.8,0l0,1.8l3.7,0l0,1.2l-3.7,0l0,1.9l3.9,0l0,1.2l-5.3,0l0,-7.2l5.2,0l0,-0.1zm-2.8,-1.9l1.7,0l-1.3,1.3l-1.2,0l0.8,-1.3z" fill="#1d2439" id="svg_32"/>
  <path d="m208.7,63.3l0,6.1l3,0l0,1.2l-4.4,0l0,-7.3l1.4,0z" fill="#1d2439" id="svg_33"/>
  <path d="m219.4,63.3l0,1.2l-3.8,0l0,1.8l3.7,0l0,1.2l-3.7,0l0,1.9l3.9,0l0,1.2l-5.3,0l0,-7.3l5.2,0z" fill="#1d2439" id="svg_34"/>
  <path d="m228,70.3c-0.7,0.2 -1.4,0.4 -2.3,0.4c-2.8,0 -4.1,-1.3 -4.1,-3.8c0,-2.4 1.4,-3.6 4.1,-3.6c0.8,0 1.6,0.1 2.3,0.4l0,1.2c-0.7,-0.3 -1.4,-0.4 -2.1,-0.4c-1.8,0 -2.8,0.8 -2.8,2.4c0,1.7 0.9,2.6 2.8,2.6c0.8,0 1.5,-0.1 2.1,-0.4l0,1.2z" fill="#1d2439" id="svg_35"/>
  <path d="m235.5,63.3l0,1.2l-2.2,0l0,6.1l-1.4,0l0,-6.1l-2.2,0l0,-1.2l5.8,0z" fill="#1d2439" id="svg_36"/>
  <path d="m237.4,70.5l0,-7.2l3.5,0c1.6,0 2.4,0.6 2.4,1.9c0,0.9 -0.6,1.6 -1.8,2.2l2.4,3.1l-1.8,0l-2.3,-3.1l0,-0.6c1.4,-0.2 2,-0.7 2,-1.5c0,-0.5 -0.3,-0.8 -1,-0.8l-1.9,0l0,6l-1.5,0z" fill="#1d2439" id="svg_37"/>
  <path d="m245.3,67c0,-2.4 1.3,-3.7 3.9,-3.7c2.5,0 3.8,1.2 3.8,3.7c0,2.4 -1.3,3.6 -3.8,3.6c-2.5,0 -3.7,-1.2 -3.9,-3.6zm3.9,2.4c1.5,0 2.3,-0.8 2.3,-2.5c0,-1.7 -0.8,-2.5 -2.3,-2.5c-1.6,0 -2.4,0.8 -2.4,2.5c0,1.7 0.8,2.5 2.4,2.5z" fill="#1d2439" id="svg_38"/>
  <path d="m255.4,70.6l0,-7.3l1.5,0l4,5.3l0,-5.3l1.4,0l0,7.3l-1.4,0l-4.1,-5.4l0,5.4l-1.4,0z" fill="#1d2439" id="svg_39"/>
  <path d="m266.4,63.3l-1.4,0l0,7.2l1.4,0l0,-7.2z" fill="#1d2439" id="svg_40"/>
  <path d="m268.9,67c0,-2.4 1.3,-3.7 3.9,-3.7c2.5,0 3.8,1.2 3.8,3.7c0,2 -0.8,3.2 -2.4,3.6l1.2,1.4l-1.1,0.8l-1.7,-2.1c-2.4,-0.1 -3.6,-1.3 -3.7,-3.7zm3.8,2.4c1.5,0 2.3,-0.8 2.3,-2.5c0,-1.7 -0.8,-2.5 -2.3,-2.5c-1.6,0 -2.4,0.8 -2.4,2.5c0,1.7 0.8,2.5 2.4,2.5z" fill="#1d2439" id="svg_41"/>
  <path d="m278.9,67.7l0,-4.4l1.4,0l0,4.4c0,1.2 0.6,1.7 1.9,1.7c1.3,0 1.9,-0.6 1.9,-1.7l0,-4.4l1.4,0l0,4.4c0,1.9 -1.1,2.9 -3.3,2.9c-2.2,0 -3.3,-1 -3.3,-2.9z" fill="#1d2439" id="svg_42"/>
  <path d="m293.5,63.3l0,1.2l-3.8,0l0,1.8l3.6,0l0,1.2l-3.6,0l0,1.9l3.9,0l0,1.2l-5.3,0l0,-7.3l5.2,0z" fill="#1d2439" id="svg_43"/>
  <path d="m295.9,70.3l0,-1.3c0.8,0.3 1.6,0.4 2.6,0.4c1.2,0 1.8,-0.4 1.8,-1.1c0,-0.5 -0.4,-0.8 -1.1,-0.8l-1.2,0c-1.6,0 -2.4,-0.7 -2.4,-2c0,-1.5 1.1,-2.2 3.4,-2.2c0.9,0 1.7,0.1 2.4,0.4l0,1.2c-0.8,-0.3 -1.6,-0.4 -2.4,-0.4c-1.3,0 -1.9,0.4 -1.9,1.1c0,0.5 0.3,0.8 0.9,0.8l1.2,0c1.7,0 2.5,0.7 2.5,2c0,1.5 -1.1,2.3 -3.2,2.3c-1,-0.1 -1.9,-0.2 -2.6,-0.4z" fill="#1d2439" id="svg_44"/>
 </g>
</svg>