<?xml version="1.0"?>
<svg width="410" height="410" xmlns="http://www.w3.org/2000/svg" xmlns:svg="http://www.w3.org/2000/svg">

 <g class="layer">
  <title>Layer 1</title>
  <rect fill="#007f7e" height="410" id="svg_1" width="410"/>
  <path d="m125.2,107.14l-7.3,14.2c0,0 -6.95,-10.87 -3.42,-17.08c2.99,-4.64 7.35,-2.5 7.98,-1.99c0.63,0.5 2.55,1.55 2.74,4.87z" fill="#ffffff" id="svg_2"/>
  <path d="m109.29,126.88l-12.06,-23.37l-8.05,0l18.95,36.72c2.59,-1.92 3.74,-8.36 1.16,-13.35z" fill="#ffffff" id="svg_3"/>
  <path d="m65.29,183.98l0,-30.82c0,-0.62 0.29,-0.93 0.88,-0.93l4.75,0c0.55,0 0.83,0.31 0.83,0.93l0,30.82c0,0.58 -0.28,0.88 -0.83,0.88l-4.75,0c-0.59,0 -0.88,-0.3 -0.88,-0.88z" fill="#ffffff" id="svg_4"/>
  <path d="m78.88,153.2c0,-0.26 0.08,-0.49 0.24,-0.68c0.16,-0.19 0.4,-0.29 0.72,-0.29l5.15,0c0.23,0 0.47,0.05 0.72,0.16c0.25,0.1 0.43,0.27 0.55,0.5l14.47,20.8l0,-20.8c0.08,-0.26 0.22,-0.44 0.41,-0.53c0.19,-0.08 0.38,-0.13 0.55,-0.13l4.45,0c0.23,0 0.46,0.09 0.7,0.27c0.23,0.17 0.35,0.41 0.35,0.7l0,30.69c0,0.64 -0.35,0.97 -1.05,0.97l-4.36,0c-0.35,0 -0.61,-0.07 -0.77,-0.2c-0.16,-0.13 -0.33,-0.3 -0.5,-0.51l-15.26,-21.98l0,21.72c0.03,0.64 -0.29,0.97 -0.97,0.97l-4.44,0c-0.64,0 -0.96,-0.33 -0.96,-0.97l0,-30.69z" fill="#ffffff" id="svg_5"/>
  <path d="m113.04,179.89c-0.24,-0.27 -0.41,-0.53 -0.53,-0.79c-0.12,-0.27 -0.01,-0.56 0.31,-0.88l2.95,-2.91c0.26,-0.23 0.52,-0.31 0.76,-0.24c0.25,0.08 0.51,0.23 0.77,0.46c0.44,0.44 0.93,0.89 1.48,1.35c0.54,0.45 1.13,0.86 1.76,1.23c0.63,0.36 1.31,0.66 2.04,0.88c0.73,0.22 1.51,0.33 2.33,0.33c0.88,0 1.66,-0.12 2.33,-0.36c0.68,-0.23 1.26,-0.55 1.74,-0.94c0.48,-0.4 0.85,-0.85 1.1,-1.36c0.25,-0.52 0.37,-1.05 0.37,-1.61c0,-0.7 -0.21,-1.3 -0.64,-1.78c-0.42,-0.48 -0.94,-0.89 -1.56,-1.23c-0.61,-0.34 -1.28,-0.62 -2,-0.84c-0.72,-0.21 -1.37,-0.4 -1.95,-0.55c-3.55,-1.05 -6.26,-2.35 -8.12,-3.89c-1.86,-1.54 -2.79,-3.55 -2.79,-6.04c0,-1.35 0.29,-2.58 0.86,-3.7c0.57,-1.11 1.38,-2.07 2.42,-2.88c1.04,-0.8 2.29,-1.42 3.76,-1.86c1.46,-0.44 3.07,-0.66 4.83,-0.66c1.94,0 3.79,0.45 5.56,1.36c1.78,0.91 3.32,2.02 4.64,3.34c0.53,0.56 0.52,1.13 -0.04,1.71l-2.42,2.6c-0.29,0.26 -0.57,0.34 -0.83,0.24c-0.27,-0.1 -0.55,-0.27 -0.84,-0.5c-0.35,-0.3 -0.76,-0.62 -1.21,-0.97c-0.45,-0.35 -0.95,-0.68 -1.49,-0.99c-0.55,-0.31 -1.12,-0.56 -1.72,-0.77c-0.6,-0.2 -1.22,-0.31 -1.87,-0.31c-0.56,0 -1.13,0.05 -1.73,0.13c-0.61,0.09 -1.15,0.26 -1.63,0.51c-0.49,0.25 -0.89,0.6 -1.21,1.06c-0.32,0.45 -0.48,1.06 -0.48,1.82c0,0.56 0.15,1.04 0.46,1.45c0.31,0.41 0.74,0.77 1.32,1.08c0.57,0.31 1.24,0.59 2.02,0.86c0.78,0.26 1.63,0.52 2.57,0.79c1.5,0.44 2.9,0.93 4.22,1.47c1.32,0.54 2.47,1.21 3.45,2c0.99,0.79 1.77,1.73 2.36,2.81c0.58,1.09 0.88,2.39 0.88,3.92c0,1.52 -0.34,2.91 -1.02,4.15c-0.67,1.25 -1.57,2.31 -2.7,3.19c-1.13,0.88 -2.43,1.55 -3.91,2.02c-1.48,0.47 -3.01,0.71 -4.6,0.71c-2.28,0 -4.48,-0.5 -6.59,-1.5c-2.11,-0.99 -3.92,-2.3 -5.41,-3.91z" fill="#ffffff" id="svg_6"/>
  <path d="m139.29,157.25l0,-4.18c0,-0.56 0.28,-0.84 0.84,-0.84l23.08,0c0.58,0 0.88,0.28 0.88,0.84l0,4.18c0,0.58 -0.3,0.87 -0.88,0.87l-8.44,0l0,25.86c0,0.58 -0.28,0.88 -0.84,0.88l-4.75,0c-0.55,0 -0.83,-0.3 -0.83,-0.88l0,-25.86l-8.22,0c-0.56,0 -0.84,-0.29 -0.84,-0.87z" fill="#ffffff" id="svg_"/>
  <path d="m168.79,183.98l0,-30.82c0,-0.62 0.29,-0.93 0.88,-0.93l4.75,0c0.55,0 0.83,0.31 0.83,0.93l0,30.82c0,0.58 -0.28,0.88 -0.83,0.88l-4.75,0c-0.59,0 -0.88,-0.3 -0.88,-0.88z" fill="#ffffff" id="svg_8"/>
  <path d="m179.74,157.25l0,-4.18c0,-0.56 0.28,-0.84 0.83,-0.84l23.09,0c0.59,0 0.88,0.28 0.88,0.84l0,4.18c0,0.58 -0.29,0.87 -0.88,0.87l-8.44,0l0,25.86c0,0.58 -0.28,0.88 -0.84,0.88l-4.75,0c-0.55,0 -0.83,-0.3 -0.83,-0.88l0,-25.86l-8.23,0c-0.55,0 -0.83,-0.29 -0.83,-0.87z" fill="#ffffff" id="svg_9"/>
  <path d="m215.22,153.2l0,18.77c0,1.03 0.17,2 0.51,2.91c0.33,0.9 0.81,1.7 1.43,2.37c0.61,0.68 1.35,1.21 2.22,1.6c0.86,0.4 1.81,0.6 2.83,0.6c1.03,0 1.97,-0.2 2.82,-0.6c0.85,-0.39 1.58,-0.92 2.19,-1.6c0.62,-0.67 1.1,-1.47 1.43,-2.37c0.34,-0.91 0.51,-1.88 0.51,-2.91l0,-18.77c0,-0.26 0.09,-0.49 0.28,-0.68c0.19,-0.19 0.44,-0.29 0.73,-0.29l4.35,0c0.27,0 0.52,0.09 0.75,0.27c0.23,0.17 0.35,0.41 0.35,0.7l0,18.77c0,1.85 -0.35,3.59 -1.05,5.21c-0.71,1.63 -1.67,3.05 -2.88,4.27c-1.22,1.22 -2.64,2.18 -4.27,2.88c-1.63,0.7 -3.36,1.05 -5.21,1.05c-1.84,0 -3.59,-0.35 -5.23,-1.05c-1.64,-0.7 -3.07,-1.66 -4.29,-2.88c-1.22,-1.22 -2.17,-2.64 -2.88,-4.27c-0.7,-1.62 -1.05,-3.36 -1.05,-5.21l0,-18.77c0,-0.23 0.08,-0.45 0.26,-0.66c0.18,-0.2 0.4,-0.31 0.66,-0.31l4.53,0c0.23,0 0.46,0.1 0.68,0.29c0.22,0.19 0.33,0.42 0.33,0.68z" fill="#ffffff" id="svg_10"/>
  <path d="m239.67,157.25l0,-4.18c0,-0.56 0.28,-0.84 0.83,-0.84l23.09,0c0.58,0 0.88,0.28 0.88,0.84l0,4.18c0,0.58 -0.3,0.87 -0.88,0.87l-8.44,0l0,25.86c0,0.58 -0.28,0.88 -0.84,0.88l-4.75,0c-0.56,0 -0.84,-0.3 -0.84,-0.88l0,-25.86l-8.22,0c-0.55,0 -0.83,-0.29 -0.83,-0.87z" fill="#ffffff" id="svg_11"/>
  <path d="m269.17,183.98l0,-30.87c0,-0.58 0.28,-0.88 0.84,-0.88l21.5,0c0.58,0 0.88,0.3 0.88,0.88l0,4.27c0,0.58 -0.3,0.88 -0.88,0.88l-15.92,0l0,6.64l12.14,0c0.64,0 0.96,0.29 0.96,0.88l0,4.17c0,0.59 -0.32,0.88 -0.96,0.88l-12.14,0l0,8.05l16.31,0c0.62,0 0.93,0.29 0.93,0.88l0,4.22c0,0.58 -0.31,0.88 -0.93,0.88l-21.89,0c-0.56,0 -0.84,-0.3 -0.84,-0.88z" fill="#ffffff" id="svg_12"/>
  <path d="m67.39,233.63l0,-24.82c0,-0.37 0.17,-0.56 0.52,-0.56l16.95,0c0.35,0 0.53,0.19 0.53,0.56l0,0.84c0,0.4 -0.18,0.6 -0.53,0.6l-15.52,0l0,10.52l12.45,0c0.35,0 0.52,0.18 0.52,0.56l0,0.94c0,0.33 -0.17,0.49 -0.52,0.49l-12.45,0l0,10.87c0,0.37 -0.18,0.56 -0.55,0.56l-0.88,0c-0.35,0 -0.52,-0.19 -0.52,-0.56z" fill="#ffffff" id="svg_13"/>
  <path d="m87.42,221.22c0,1.56 0.3,3.03 0.89,4.39c0.59,1.36 1.4,2.55 2.41,3.56c1.01,1.02 2.21,1.82 3.58,2.42c1.38,0.59 2.85,0.89 4.41,0.89c1.54,0 2.99,-0.3 4.37,-0.89c1.37,-0.6 2.57,-1.4 3.58,-2.42c1.01,-1.01 1.82,-2.2 2.41,-3.56c0.6,-1.36 0.9,-2.83 0.9,-4.39c0,-1.54 -0.3,-2.99 -0.9,-4.37c-0.59,-1.37 -1.4,-2.57 -2.41,-3.58c-1.01,-1.02 -2.21,-1.82 -3.58,-2.41c-1.38,-0.6 -2.83,-0.89 -4.37,-0.89c-1.56,0 -3.03,0.29 -4.41,0.89c-1.37,0.59 -2.57,1.39 -3.58,2.41c-1.01,1.01 -1.82,2.21 -2.41,3.58c-0.59,1.38 -0.89,2.83 -0.89,4.37zm-2.03,0.04c0,-1.84 0.35,-3.57 1.05,-5.19c0.7,-1.62 1.65,-3.04 2.85,-4.25c1.2,-1.21 2.61,-2.17 4.23,-2.87c1.62,-0.7 3.35,-1.05 5.19,-1.05c1.82,0 3.54,0.35 5.15,1.05c1.62,0.7 3.03,1.66 4.23,2.87c1.2,1.21 2.15,2.63 2.85,4.25c0.7,1.62 1.05,3.35 1.05,5.19c0,1.84 -0.35,3.56 -1.05,5.17c-0.7,1.61 -1.65,3.01 -2.85,4.21c-1.2,1.2 -2.61,2.15 -4.23,2.85c-1.61,0.7 -3.35,1.05 -5.19,1.05c-1.84,0 -3.56,-0.35 -5.17,-1.05c-1.61,-0.7 -3.01,-1.65 -4.21,-2.85c-1.2,-1.2 -2.15,-2.6 -2.85,-4.21c-0.7,-1.61 -1.05,-3.33 -1.05,-5.17z" fill="#ffffff" id="svg_14"/>
  <path d="m126.53,222.51c0.89,0 1.74,-0.13 2.54,-0.42c0.8,-0.27 1.51,-0.68 2.13,-1.2c0.62,-0.52 1.11,-1.17 1.47,-1.92c0.36,-0.76 0.54,-1.62 0.54,-2.57c0,-0.84 -0.16,-1.63 -0.47,-2.38c-0.31,-0.74 -0.75,-1.4 -1.31,-1.96c-0.56,-0.56 -1.21,-1 -1.96,-1.32c-0.75,-0.33 -1.55,-0.49 -2.41,-0.49l-8.64,0l0,12.26l8.11,0zm0.6,-14.26c1.12,0 2.17,0.22 3.16,0.65c0.99,0.43 1.85,1.01 2.57,1.75c0.72,0.73 1.3,1.59 1.71,2.59c0.42,0.98 0.63,2.04 0.63,3.16c0,1.65 -0.44,3.14 -1.32,4.47c-0.89,1.33 -2.04,2.31 -3.47,2.94l4.41,9.72c0.09,0.16 0.1,0.31 0.03,0.45c-0.07,0.14 -0.2,0.21 -0.42,0.21l-1.22,0c-0.19,0 -0.34,-0.1 -0.45,-0.31l-4.3,-9.55c-0.24,0.05 -0.47,0.09 -0.7,0.13c-0.23,0.03 -0.5,0.05 -0.81,0.05l-8.53,0l0,9.05c0,0.42 -0.2,0.63 -0.62,0.63l-0.74,0c-0.42,0 -0.63,-0.21 -0.63,-0.63l0,-24.71c0,-0.4 0.21,-0.6 0.63,-0.6l10.07,0z" fill="#ffffff" id="svg_15"/>
  <path d="m150.9,233.49l0,-24.54c0,-0.46 0.22,-0.7 0.66,-0.7l16.75,0c0.46,0 0.7,0.24 0.7,0.7l0,3.39c0,0.47 -0.24,0.7 -0.7,0.7l-12.31,0l0,6.85l9.41,0c0.44,0 0.66,0.24 0.66,0.7l0,3.22c0,0.47 -0.22,0.7 -0.66,0.7l-9.41,0l0,8.98c0,0.47 -0.23,0.7 -0.7,0.7l-3.74,0c-0.44,0 -0.66,-0.23 -0.66,-0.7z" fill="#ffffff" id="svg_16"/>
  <path d="m177.57,209.02l0,14.93c0,0.81 0.13,1.58 0.4,2.3c0.27,0.73 0.65,1.36 1.14,1.89c0.49,0.54 1.08,0.96 1.76,1.28c0.69,0.31 1.44,0.47 2.26,0.47c0.81,0 1.56,-0.16 2.24,-0.47c0.67,-0.32 1.25,-0.74 1.74,-1.28c0.49,-0.53 0.87,-1.16 1.14,-1.89c0.27,-0.72 0.4,-1.49 0.4,-2.3l0,-14.93c0,-0.21 0.08,-0.39 0.23,-0.54c0.15,-0.15 0.34,-0.23 0.58,-0.23l3.46,0c0.21,0 0.4,0.07 0.59,0.21c0.19,0.14 0.28,0.33 0.28,0.56l0,14.93c0,1.47 -0.28,2.85 -0.84,4.14c-0.56,1.29 -1.32,2.42 -2.29,3.39c-0.97,0.97 -2.1,1.73 -3.39,2.29c-1.29,0.56 -2.67,0.84 -4.14,0.84c-1.47,0 -2.86,-0.28 -4.16,-0.84c-1.31,-0.56 -2.44,-1.32 -3.41,-2.29c-0.97,-0.97 -1.73,-2.1 -2.29,-3.39c-0.56,-1.29 -0.84,-2.67 -0.84,-4.14l0,-14.93c0,-0.18 0.07,-0.36 0.21,-0.52c0.14,-0.16 0.32,-0.25 0.53,-0.25l3.6,0c0.18,0 0.36,0.08 0.54,0.23c0.17,0.15 0.26,0.33 0.26,0.54z" fill="#ffffff" id="svg_17"/>
  <path d="m197.01,212.24l0,-3.32c0,-0.45 0.22,-0.67 0.66,-0.67l18.35,0c0.47,0 0.7,0.22 0.7,0.67l0,3.32c0,0.46 -0.23,0.7 -0.7,0.7l-6.71,0l0,20.55c0,0.47 -0.22,0.7 -0.66,0.7l-3.78,0c-0.44,0 -0.66,-0.23 -0.66,-0.7l0,-20.55l-6.54,0c-0.44,0 -0.66,-0.24 -0.66,-0.7z" fill="#ffffff" id="svg_18"/>
  <path d="m225.22,209.02l0,14.93c0,0.81 0.13,1.58 0.4,2.3c0.27,0.73 0.65,1.36 1.13,1.89c0.49,0.54 1.08,0.96 1.77,1.28c0.69,0.31 1.44,0.47 2.26,0.47c0.81,0 1.56,-0.16 2.23,-0.47c0.68,-0.32 1.26,-0.74 1.75,-1.28c0.49,-0.53 0.87,-1.16 1.14,-1.89c0.26,-0.72 0.4,-1.49 0.4,-2.3l0,-14.93c0,-0.21 0.07,-0.39 0.23,-0.54c0.15,-0.15 0.34,-0.23 0.57,-0.23l3.46,0c0.21,0 0.41,0.07 0.6,0.21c0.18,0.14 0.28,0.33 0.28,0.56l0,14.93c0,1.47 -0.28,2.85 -0.84,4.14c-0.56,1.29 -1.32,2.42 -2.29,3.39c-0.97,0.97 -2.1,1.73 -3.39,2.29c-1.3,0.56 -2.68,0.84 -4.14,0.84c-1.47,0 -2.86,-0.28 -4.17,-0.84c-1.3,-0.56 -2.44,-1.32 -3.4,-2.29c-0.97,-0.97 -1.73,-2.1 -2.29,-3.39c-0.56,-1.29 -0.84,-2.67 -0.84,-4.14l0,-14.93c0,-0.18 0.07,-0.36 0.21,-0.52c0.14,-0.16 0.31,-0.25 0.52,-0.25l3.6,0c0.19,0 0.37,0.08 0.55,0.23c0.17,0.15 0.26,0.33 0.26,0.54z" fill="#ffffff" id="svg_19"/>
  <path d="m257.31,212.76l-5.46,0l0,7.83l5.46,0c1.21,0 2.22,-0.37 3.02,-1.1c0.8,-0.73 1.21,-1.67 1.21,-2.81c0,-0.56 -0.11,-1.08 -0.32,-1.56c-0.21,-0.47 -0.51,-0.89 -0.89,-1.24c-0.39,-0.35 -0.83,-0.62 -1.35,-0.82c-0.51,-0.2 -1.07,-0.3 -1.67,-0.3zm-10.56,20.73l0,-24.54c0,-0.19 0.05,-0.35 0.16,-0.49c0.1,-0.14 0.27,-0.21 0.5,-0.21l11.12,0c1.19,0 2.29,0.24 3.3,0.72c1.02,0.48 1.88,1.11 2.61,1.91c0.72,0.79 1.29,1.7 1.69,2.72c0.41,1.03 0.62,2.09 0.62,3.18c0,1.47 -0.41,2.85 -1.21,4.15c-0.81,1.29 -1.87,2.32 -3.2,3.09l4.75,9.44c0.1,0.16 0.1,0.32 0.02,0.49c-0.08,0.16 -0.24,0.24 -0.47,0.24l-4.51,0c-0.35,0 -0.62,-0.2 -0.8,-0.59l-4.16,-8.39l-5.32,0l0,8.28c0,0.47 -0.23,0.7 -0.7,0.7l-3.74,0c-0.44,0 -0.66,-0.23 -0.66,-0.7z" fill="#ffffff" id="svg_20"/>
  <path d="m270.2,233.49l0,-24.54c0,-0.46 0.23,-0.7 0.67,-0.7l17.09,0c0.47,0 0.7,0.24 0.7,0.7l0,3.39c0,0.47 -0.23,0.7 -0.7,0.7l-12.65,0l0,5.28l9.65,0c0.51,0 0.77,0.23 0.77,0.7l0,3.32c0,0.47 -0.26,0.7 -0.77,0.7l-9.65,0l0,6.4l12.97,0c0.49,0 0.73,0.23 0.73,0.7l0,3.35c0,0.47 -0.24,0.7 -0.73,0.7l-17.41,0c-0.44,0 -0.67,-0.23 -0.67,-0.7z" fill="#ffffff" id="svg_21"/>
  <path d="m65.29,249.82l0,-3.32c0,-0.45 0.22,-0.67 0.66,-0.67l18.36,0c0.46,0 0.7,0.22 0.7,0.67l0,3.32c0,0.46 -0.24,0.69 -0.7,0.69l-6.72,0l0,20.56c0,0.47 -0.22,0.7 -0.66,0.7l-3.77,0c-0.45,0 -0.67,-0.23 -0.67,-0.7l0,-20.56l-6.54,0c-0.44,0 -0.66,-0.23 -0.66,-0.69z" fill="#ffffff" id="svg_22"/>
  <path d="m88.75,271.07l0,-24.54c0,-0.47 0.22,-0.7 0.66,-0.7l17.09,0c0.47,0 0.7,0.23 0.7,0.7l0,3.39c0,0.47 -0.23,0.7 -0.7,0.7l-12.65,0l0,5.28l9.65,0c0.51,0 0.77,0.23 0.77,0.7l0,3.32c0,0.46 -0.26,0.7 -0.77,0.7l-9.65,0l0,6.39l12.97,0c0.49,0 0.73,0.24 0.73,0.7l0,3.36c0,0.47 -0.24,0.7 -0.73,0.7l-17.41,0c-0.44,0 -0.66,-0.23 -0.66,-0.7z" fill="#ffffff" id="svg_23"/>
  <path d="m127.16,265.72c0.47,-0.35 0.84,-0.35 1.12,0l1.75,2.97c0.19,0.21 0.25,0.39 0.21,0.54c-0.05,0.16 -0.18,0.31 -0.39,0.48c-1,0.74 -2.12,1.34 -3.35,1.78c-1.24,0.44 -2.65,0.66 -4.23,0.66c-1.84,0 -3.58,-0.35 -5.21,-1.05c-1.63,-0.7 -3.06,-1.65 -4.28,-2.86c-1.22,-1.21 -2.19,-2.63 -2.89,-4.27c-0.7,-1.63 -1.05,-3.36 -1.05,-5.21c0,-1.86 0.35,-3.6 1.05,-5.2c0.7,-1.61 1.67,-3.02 2.89,-4.23c1.22,-1.21 2.65,-2.17 4.28,-2.85c1.63,-0.69 3.37,-1.03 5.21,-1.03c1.58,0 2.99,0.21 4.23,0.64c1.23,0.43 2.36,1.02 3.39,1.77c0.19,0.16 0.28,0.33 0.28,0.49c0,0.16 -0.02,0.29 -0.07,0.38l-1.85,3.15c-0.21,0.28 -0.54,0.29 -0.98,0.03c-0.82,-0.51 -1.62,-0.91 -2.4,-1.19c-0.78,-0.27 -1.65,-0.41 -2.6,-0.41c-1.19,0 -2.29,0.21 -3.29,0.64c-1,0.43 -1.87,1.03 -2.6,1.8c-0.74,0.77 -1.31,1.67 -1.73,2.69c-0.42,1.03 -0.63,2.14 -0.63,3.32c0,1.19 0.21,2.31 0.63,3.34c0.42,1.04 0.99,1.95 1.73,2.73c0.73,0.78 1.6,1.4 2.6,1.85c1,0.46 2.1,0.68 3.29,0.68c0.95,0 1.86,-0.15 2.71,-0.47c0.85,-0.31 1.58,-0.7 2.18,-1.17z" fill="#ffffff" id="svg_24"/>
  <path d="m151.53,271.07l0,-10.49l-11.64,0l0,10.49c0,0.47 -0.26,0.7 -0.77,0.7l-3.67,0c-0.45,0 -0.67,-0.23 -0.67,-0.7l0,-24.51c0,-0.21 0.06,-0.38 0.16,-0.52c0.1,-0.14 0.27,-0.21 0.51,-0.21l3.77,0c0.14,0 0.29,0.05 0.44,0.14c0.15,0.09 0.23,0.28 0.23,0.56l0,9.12l11.64,0l0,-9.09c0,-0.21 0.05,-0.38 0.15,-0.52c0.11,-0.14 0.28,-0.21 0.51,-0.21l3.78,0c0.14,0 0.28,0.05 0.42,0.14c0.14,0.09 0.2,0.28 0.2,0.56l0,24.54c0,0.47 -0.24,0.7 -0.73,0.7l-3.67,0c-0.44,0 -0.66,-0.23 -0.66,-0.7z" fill="#ffffff" id="svg_25"/>
  <path d="m161.8,246.6c0,-0.21 0.07,-0.39 0.2,-0.54c0.13,-0.15 0.32,-0.23 0.57,-0.23l4.09,0c0.19,0 0.38,0.04 0.58,0.12c0.2,0.08 0.34,0.22 0.44,0.4l11.5,16.54l0,-16.54c0.07,-0.2 0.18,-0.35 0.33,-0.41c0.15,-0.07 0.3,-0.11 0.44,-0.11l3.53,0c0.18,0 0.37,0.07 0.56,0.21c0.18,0.14 0.28,0.33 0.28,0.56l0,24.4c0,0.51 -0.28,0.77 -0.84,0.77l-3.46,0c-0.28,0 -0.49,-0.05 -0.61,-0.16c-0.13,-0.1 -0.27,-0.24 -0.41,-0.4l-12.13,-17.48l0,17.27c0.03,0.51 -0.23,0.77 -0.77,0.77l-3.53,0c-0.51,0 -0.77,-0.26 -0.77,-0.77l0,-24.4z" fill="#ffffff" id="svg_26"/>
  <path d="m209.76,258.8c0,-1.19 -0.21,-2.3 -0.62,-3.32c-0.42,-1.03 -1,-1.92 -1.73,-2.68c-0.74,-0.75 -1.61,-1.35 -2.61,-1.8c-1,-0.44 -2.1,-0.66 -3.29,-0.66c-1.16,0 -2.25,0.22 -3.25,0.66c-1,0.45 -1.87,1.05 -2.6,1.8c-0.73,0.76 -1.31,1.65 -1.71,2.68c-0.41,1.02 -0.61,2.13 -0.61,3.32c0,1.16 0.2,2.26 0.61,3.28c0.4,1.03 0.98,1.92 1.71,2.68c0.73,0.76 1.6,1.36 2.6,1.8c1,0.44 2.09,0.66 3.25,0.66c1.19,0 2.29,-0.22 3.29,-0.66c1,-0.44 1.87,-1.04 2.61,-1.8c0.73,-0.76 1.31,-1.65 1.73,-2.68c0.41,-1.02 0.62,-2.12 0.62,-3.28zm5.14,0c0,1.84 -0.35,3.57 -1.05,5.19c-0.69,1.62 -1.65,3.03 -2.86,4.23c-1.21,1.2 -2.64,2.15 -4.27,2.85c-1.63,0.7 -3.36,1.05 -5.21,1.05c-1.84,0 -3.57,-0.35 -5.19,-1.05c-1.62,-0.7 -3.03,-1.65 -4.23,-2.85c-1.2,-1.2 -2.14,-2.61 -2.83,-4.23c-0.69,-1.62 -1.03,-3.35 -1.03,-5.19c0,-1.86 0.34,-3.61 1.03,-5.23c0.69,-1.62 1.63,-3.03 2.83,-4.23c1.2,-1.2 2.61,-2.15 4.23,-2.84c1.62,-0.71 3.35,-1.05 5.19,-1.05c1.85,0 3.58,0.34 5.21,1.05c1.63,0.69 3.06,1.64 4.27,2.84c1.21,1.2 2.17,2.61 2.86,4.23c0.7,1.62 1.05,3.37 1.05,5.23z" fill="#ffffff" id="svg_27"/>
  <path d="m219.34,246.56c0,-0.21 0.07,-0.38 0.21,-0.54c0.14,-0.15 0.34,-0.23 0.6,-0.23l3.56,0c0.49,0 0.75,0.26 0.77,0.77l0,20.45l10.21,0c0.21,0 0.39,0.07 0.54,0.21c0.15,0.14 0.23,0.34 0.23,0.6l0,3.18c0,0.49 -0.26,0.75 -0.77,0.77l-14.58,0c-0.51,0 -0.77,-0.26 -0.77,-0.77l0,-24.44z" fill="#ffffff" id="svg_28"/>
  <path d="m258.14,258.8c0,-1.19 -0.21,-2.3 -0.63,-3.32c-0.41,-1.03 -0.99,-1.92 -1.73,-2.68c-0.73,-0.75 -1.6,-1.35 -2.6,-1.8c-1,-0.44 -2.1,-0.66 -3.29,-0.66c-1.16,0 -2.25,0.22 -3.25,0.66c-1,0.45 -1.87,1.05 -2.6,1.8c-0.74,0.76 -1.31,1.65 -1.72,2.68c-0.4,1.02 -0.61,2.13 -0.61,3.32c0,1.16 0.21,2.26 0.61,3.28c0.41,1.03 0.98,1.92 1.72,2.68c0.73,0.76 1.6,1.36 2.6,1.8c1,0.44 2.09,0.66 3.25,0.66c1.19,0 2.29,-0.22 3.29,-0.66c1,-0.44 1.87,-1.04 2.6,-1.8c0.74,-0.76 1.32,-1.65 1.73,-2.68c0.42,-1.02 0.63,-2.12 0.63,-3.28zm5.14,0c0,1.84 -0.35,3.57 -1.05,5.19c-0.7,1.62 -1.65,3.03 -2.86,4.23c-1.22,1.2 -2.64,2.15 -4.27,2.85c-1.63,0.7 -3.36,1.05 -5.21,1.05c-1.84,0 -3.57,-0.35 -5.19,-1.05c-1.62,-0.7 -3.03,-1.65 -4.23,-2.85c-1.2,-1.2 -2.14,-2.61 -2.83,-4.23c-0.69,-1.62 -1.03,-3.35 -1.03,-5.19c0,-1.86 0.34,-3.61 1.03,-5.23c0.69,-1.62 1.63,-3.03 2.83,-4.23c1.2,-1.2 2.61,-2.15 4.23,-2.84c1.62,-0.71 3.35,-1.05 5.19,-1.05c1.85,0 3.58,0.34 5.21,1.05c1.63,0.69 3.05,1.64 4.27,2.84c1.21,1.2 2.16,2.61 2.86,4.23c0.7,1.62 1.05,3.37 1.05,5.23z" fill="#ffffff" id="svg_29"/>
  <path d="m279.85,267.4c0.68,0 1.37,-0.09 2.08,-0.28c0.71,-0.19 1.35,-0.49 1.91,-0.91l0,-5.35c0,-0.46 0.23,-0.7 0.7,-0.7l3.11,0c0.16,0 0.31,0.05 0.45,0.14c0.14,0.1 0.21,0.28 0.21,0.56l0,7.94c0,0.3 -0.12,0.56 -0.35,0.77c-1.05,0.72 -2.27,1.32 -3.65,1.81c-1.39,0.49 -2.87,0.74 -4.46,0.74c-1.84,0 -3.58,-0.35 -5.21,-1.05c-1.63,-0.7 -3.06,-1.65 -4.28,-2.87c-1.22,-1.21 -2.18,-2.63 -2.88,-4.26c-0.7,-1.63 -1.05,-3.37 -1.05,-5.21c0,-1.84 0.35,-3.57 1.05,-5.19c0.7,-1.62 1.65,-3.03 2.84,-4.23c1.21,-1.2 2.62,-2.15 4.25,-2.83c1.63,-0.69 3.37,-1.03 5.21,-1.03c1.59,0 3.01,0.22 4.27,0.68c1.26,0.45 2.44,1.1 3.56,1.94c0.19,0.14 0.29,0.29 0.32,0.45c0.02,0.17 -0.03,0.32 -0.14,0.46l-2.07,2.97c-0.11,0.11 -0.25,0.2 -0.41,0.24c-0.17,0.05 -0.36,0 -0.56,-0.14c-0.68,-0.51 -1.42,-0.92 -2.22,-1.24c-0.81,-0.31 -1.7,-0.47 -2.68,-0.47c-1.21,0 -2.34,0.22 -3.37,0.65c-1.04,0.43 -1.94,1.02 -2.69,1.78c-0.76,0.76 -1.35,1.64 -1.79,2.66c-0.43,1.01 -0.64,2.11 -0.64,3.3c0,1.19 0.22,2.31 0.66,3.37c0.44,1.06 1.04,1.99 1.8,2.78c0.76,0.8 1.66,1.42 2.69,1.87c1.04,0.46 2.15,0.67 3.34,0.65z" fill="#ffffff" id="svg_30"/>
  <path d="m293.1,271.07l0,-24.51c0,-0.48 0.23,-0.73 0.7,-0.73l3.77,0c0.45,0 0.67,0.25 0.67,0.73l0,24.51c0,0.47 -0.22,0.7 -0.67,0.7l-3.77,0c-0.47,0 -0.7,-0.23 -0.7,-0.7z" fill="#ffffff" id="svg_31"/>
  <path d="m303.9,271.07l0,-24.54c0,-0.47 0.22,-0.7 0.67,-0.7l17.09,0c0.47,0 0.7,0.23 0.7,0.7l0,3.39c0,0.47 -0.23,0.7 -0.7,0.7l-12.66,0l0,5.28l9.65,0c0.52,0 0.77,0.23 0.77,0.7l0,3.32c0,0.46 -0.25,0.7 -0.77,0.7l-9.65,0l0,6.39l12.98,0c0.48,0 0.73,0.24 0.73,0.7l0,3.36c0,0.47 -0.25,0.7 -0.73,0.7l-17.41,0c-0.45,0 -0.67,-0.23 -0.67,-0.7z" fill="#ffffff" id="svg_32"/>
  <path d="m325.78,267.82c-0.18,-0.21 -0.32,-0.42 -0.42,-0.63c-0.09,-0.21 -0.01,-0.44 0.25,-0.7l2.34,-2.31c0.21,-0.18 0.42,-0.25 0.61,-0.19c0.2,0.06 0.4,0.18 0.62,0.37c0.34,0.35 0.74,0.7 1.17,1.06c0.43,0.37 0.89,0.69 1.39,0.98c0.5,0.29 1.05,0.53 1.63,0.7c0.58,0.18 1.2,0.26 1.85,0.26c0.7,0 1.32,-0.09 1.85,-0.28c0.54,-0.18 1,-0.43 1.38,-0.75c0.39,-0.31 0.68,-0.67 0.88,-1.08c0.2,-0.41 0.3,-0.83 0.3,-1.28c0,-0.56 -0.17,-1.03 -0.51,-1.41c-0.34,-0.39 -0.75,-0.71 -1.24,-0.98c-0.49,-0.27 -1.02,-0.49 -1.59,-0.66c-0.57,-0.18 -1.09,-0.32 -1.56,-0.44c-2.82,-0.84 -4.97,-1.87 -6.45,-3.1c-1.48,-1.22 -2.22,-2.82 -2.22,-4.8c0,-1.07 0.23,-2.05 0.68,-2.94c0.46,-0.89 1.1,-1.65 1.93,-2.29c0.82,-0.64 1.82,-1.13 2.98,-1.48c1.17,-0.36 2.45,-0.53 3.85,-0.53c1.54,0 3.01,0.36 4.43,1.08c1.4,0.73 2.63,1.61 3.68,2.66c0.42,0.45 0.41,0.9 -0.03,1.36l-1.93,2.07c-0.23,0.21 -0.45,0.27 -0.66,0.19c-0.21,-0.08 -0.43,-0.22 -0.66,-0.4c-0.28,-0.24 -0.6,-0.49 -0.96,-0.77c-0.37,-0.28 -0.76,-0.54 -1.19,-0.79c-0.44,-0.24 -0.89,-0.45 -1.37,-0.61c-0.48,-0.16 -0.97,-0.25 -1.49,-0.25c-0.44,0 -0.9,0.04 -1.38,0.11c-0.47,0.07 -0.9,0.2 -1.29,0.4c-0.38,0.2 -0.7,0.48 -0.96,0.84c-0.26,0.36 -0.38,0.85 -0.38,1.45c0,0.45 0.12,0.83 0.36,1.16c0.25,0.32 0.6,0.61 1.05,0.85c0.46,0.25 0.99,0.47 1.61,0.68c0.62,0.21 1.3,0.42 2.05,0.63c1.18,0.35 2.3,0.74 3.35,1.17c1.05,0.44 1.96,0.96 2.75,1.59c0.78,0.63 1.4,1.38 1.87,2.24c0.46,0.86 0.69,1.9 0.69,3.11c0,1.21 -0.26,2.32 -0.8,3.31c-0.54,0.99 -1.25,1.83 -2.15,2.53c-0.9,0.7 -1.93,1.24 -3.11,1.61c-1.18,0.37 -2.4,0.56 -3.66,0.56c-1.81,0 -3.56,-0.4 -5.24,-1.19c-1.67,-0.79 -3.11,-1.83 -4.3,-3.11z" fill="#ffffff" id="svg_33"/>
  <path d="m67.84,297.45l0,8.25l0.83,0c0.44,0 0.88,-0.01 1.32,-0.02c0.59,-0.02 1.12,-0.14 1.62,-0.36c0.49,-0.22 0.92,-0.52 1.28,-0.89c0.36,-0.37 0.64,-0.8 0.84,-1.3c0.21,-0.5 0.31,-1.03 0.31,-1.6c0,-0.6 -0.11,-1.16 -0.33,-1.66c-0.22,-0.5 -0.52,-0.93 -0.91,-1.29c-0.38,-0.36 -0.82,-0.64 -1.33,-0.84c-0.52,-0.19 -1.06,-0.29 -1.63,-0.29l-2,0zm8.74,4.14c0,0.61 -0.08,1.19 -0.23,1.76c-0.16,0.56 -0.39,1.08 -0.67,1.56c-0.29,0.49 -0.64,0.93 -1.04,1.32c-0.4,0.39 -0.85,0.73 -1.34,1.01c-0.5,0.28 -1.03,0.49 -1.6,0.65c-0.56,0.15 -1.16,0.23 -1.77,0.23l-4.23,0c-0.11,0 -0.21,-0.03 -0.29,-0.07c-0.08,-0.05 -0.12,-0.15 -0.12,-0.3l0,-12.3c0,-0.28 0.13,-0.42 0.41,-0.42l4.23,0c0.93,0 1.8,0.17 2.61,0.51c0.81,0.34 1.51,0.8 2.11,1.39c0.6,0.59 1.07,1.28 1.42,2.08c0.34,0.8 0.51,1.66 0.51,2.58z" fill="#ffffff" id="svg_34"/>
  <path d="m78.98,295.46c0,-0.29 0.13,-0.43 0.39,-0.43l8.49,0c0.15,0 0.26,0.05 0.32,0.13c0.07,0.09 0.1,0.19 0.1,0.33l0,1.55c0,0.11 -0.04,0.2 -0.11,0.28c-0.07,0.09 -0.18,0.13 -0.33,0.13l-6.26,0l0,2.67l4.82,0c0.12,-0.02 0.22,0.01 0.29,0.07c0.07,0.06 0.1,0.17 0.1,0.31l0,1.6c0,0.1 -0.03,0.2 -0.09,0.28c-0.05,0.08 -0.15,0.12 -0.28,0.12l-4.84,0l0,3.2l6.49,0c0.16,0 0.27,0.04 0.32,0.11c0.06,0.07 0.09,0.18 0.09,0.32l0,1.61c0,0.25 -0.14,0.38 -0.39,0.38l-8.72,0c-0.11,0 -0.2,-0.03 -0.28,-0.09c-0.07,-0.06 -0.11,-0.16 -0.11,-0.28l0,-12.29z" fill="#ffffff" id="svg_35"/>
  <path d="m99.99,307.86c-0.07,-0.12 -0.12,-0.25 -0.18,-0.37c-0.05,-0.13 -0.1,-0.26 -0.16,-0.4l-4.62,-11.58c0,-0.02 -0.01,-0.04 -0.01,-0.07c-0.01,-0.04 -0.02,-0.08 -0.02,-0.13c0,-0.18 0.12,-0.28 0.36,-0.28l1.89,0c0.22,0 0.37,0.11 0.46,0.34c0.13,0.37 0.28,0.8 0.47,1.3c0.18,0.49 0.38,1.02 0.59,1.58c0.21,0.55 0.42,1.12 0.64,1.7c0.22,0.58 0.44,1.14 0.65,1.69c0.2,0.55 0.4,1.06 0.58,1.54c0.17,0.48 0.33,0.89 0.45,1.23c0.13,-0.34 0.28,-0.75 0.46,-1.23c0.17,-0.48 0.36,-0.99 0.57,-1.54c0.2,-0.55 0.41,-1.11 0.63,-1.69c0.21,-0.58 0.42,-1.15 0.63,-1.7c0.21,-0.56 0.4,-1.09 0.59,-1.58c0.18,-0.5 0.34,-0.93 0.48,-1.3c0.08,-0.23 0.24,-0.34 0.47,-0.34l1.85,0c0.27,0 0.4,0.1 0.4,0.29c0,0.05 -0.01,0.08 -0.01,0.12c-0.01,0.03 -0.02,0.06 -0.02,0.07l-4.61,11.58c-0.05,0.12 -0.1,0.24 -0.14,0.36c-0.05,0.12 -0.11,0.24 -0.16,0.35c-0.09,0.15 -0.2,0.24 -0.33,0.27c-0.13,0.03 -0.3,0.05 -0.48,0.05l-1.02,0c-0.13,0 -0.23,-0.03 -0.28,-0.08c-0.06,-0.06 -0.1,-0.12 -0.13,-0.18z" fill="#ffffff" id="svg_36"/>
  <path d="m108.93,295.42c0,-0.11 0.03,-0.2 0.1,-0.27c0.06,-0.08 0.16,-0.12 0.28,-0.12l1.75,0c0.1,0 0.19,0.04 0.28,0.11c0.09,0.07 0.13,0.16 0.13,0.28l0,12.31c0,0.26 -0.13,0.39 -0.41,0.39l-1.75,0c-0.25,0 -0.38,-0.13 -0.38,-0.39l0,-12.31z" fill="#ffffff" id="svg_37"/>
  <path d="m114.35,295.43c0,-0.11 0.03,-0.21 0.1,-0.28c0.07,-0.08 0.16,-0.12 0.28,-0.12l2.03,0c0.08,0 0.16,0.02 0.24,0.06c0.07,0.04 0.13,0.1 0.19,0.18c1.01,1.43 2,2.86 2.99,4.27c0.99,1.41 1.98,2.83 2.99,4.27l0,-8.44c0.01,-0.11 0.06,-0.19 0.13,-0.25c0.07,-0.06 0.15,-0.09 0.25,-0.09l1.7,0c0.12,0 0.22,0.04 0.31,0.11c0.08,0.07 0.13,0.16 0.13,0.28l0,12.33c0,0.24 -0.14,0.37 -0.42,0.37l-1.91,0c-0.13,0 -0.25,-0.08 -0.36,-0.24c-1.04,-1.5 -2.06,-3 -3.09,-4.49c-1.02,-1.5 -2.05,-2.99 -3.08,-4.5l0,8.84c0,0.13 -0.03,0.22 -0.09,0.29c-0.06,0.06 -0.17,0.1 -0.31,0.1l-1.7,0c-0.13,0 -0.23,-0.04 -0.29,-0.11c-0.06,-0.06 -0.09,-0.16 -0.09,-0.27l0,-12.31z" fill="#ffffff" id="svg_38"/>
  <path d="m138.37,295.99c0.07,0.04 0.13,0.09 0.18,0.14c0.04,0.06 0.07,0.13 0.07,0.22c0,0.06 -0.02,0.13 -0.06,0.2l-0.85,1.45c-0.1,0.14 -0.21,0.2 -0.32,0.2c-0.03,0 -0.07,0 -0.12,-0.02c-0.05,-0.01 -0.09,-0.03 -0.14,-0.06c-0.37,-0.27 -0.77,-0.47 -1.19,-0.62c-0.42,-0.15 -0.87,-0.22 -1.35,-0.22c-0.6,0 -1.15,0.11 -1.65,0.34c-0.5,0.23 -0.93,0.53 -1.29,0.92c-0.37,0.39 -0.65,0.84 -0.85,1.36c-0.2,0.53 -0.3,1.09 -0.3,1.69c0,0.59 0.1,1.15 0.3,1.67c0.2,0.52 0.48,0.97 0.85,1.36c0.36,0.38 0.79,0.69 1.29,0.91c0.5,0.23 1.05,0.34 1.65,0.34c0.48,0 0.93,-0.07 1.36,-0.22c0.43,-0.15 0.83,-0.35 1.2,-0.62c0.04,-0.03 0.09,-0.06 0.14,-0.07c0.05,-0.01 0.09,-0.02 0.13,-0.02c0.1,0 0.2,0.06 0.31,0.19l0.87,1.47c0.03,0.07 0.05,0.14 0.05,0.19c0,0.09 -0.02,0.15 -0.07,0.21c-0.05,0.05 -0.11,0.1 -0.17,0.15c-0.56,0.37 -1.15,0.65 -1.79,0.85c-0.63,0.21 -1.31,0.31 -2.01,0.31c-0.62,0 -1.22,-0.08 -1.79,-0.24c-0.58,-0.16 -1.11,-0.38 -1.61,-0.68c-0.5,-0.29 -0.96,-0.64 -1.36,-1.05c-0.41,-0.41 -0.76,-0.86 -1.06,-1.36c-0.29,-0.49 -0.51,-1.03 -0.67,-1.6c-0.16,-0.57 -0.24,-1.17 -0.24,-1.79c0,-0.63 0.08,-1.22 0.24,-1.79c0.16,-0.58 0.38,-1.11 0.67,-1.62c0.3,-0.5 0.65,-0.96 1.06,-1.37c0.4,-0.41 0.86,-0.76 1.36,-1.05c0.5,-0.29 1.03,-0.52 1.61,-0.68c0.57,-0.16 1.17,-0.24 1.79,-0.24c0.7,0 1.36,0.1 1.99,0.29c0.63,0.2 1.22,0.49 1.77,0.86z" fill="#ffffff" id="svg_39"/>
  <path d="m141.01,295.42c0,-0.11 0.03,-0.2 0.1,-0.27c0.06,-0.08 0.16,-0.12 0.29,-0.12l1.75,0c0.1,0 0.19,0.04 0.28,0.11c0.08,0.07 0.13,0.16 0.13,0.28l0,12.31c0,0.26 -0.14,0.39 -0.41,0.39l-1.75,0c-0.26,0 -0.39,-0.13 -0.39,-0.39l0,-12.31z" fill="#ffffff" id="svg_40"/>
  <path d="m161.06,295.42c0,-0.11 0.04,-0.2 0.11,-0.27c0.07,-0.08 0.16,-0.12 0.28,-0.12l0.89,0c0.1,0 0.2,0.04 0.29,0.11c0.09,0.07 0.13,0.16 0.13,0.28l0,12.31c0,0.26 -0.14,0.39 -0.42,0.39l-0.89,0c-0.26,0 -0.39,-0.13 -0.39,-0.39l0,-5.66l-7.42,0l0,5.66c0,0.26 -0.14,0.39 -0.43,0.39l-0.89,0c-0.26,0 -0.38,-0.13 -0.38,-0.39l0,-12.31c0,-0.11 0.03,-0.2 0.1,-0.27c0.07,-0.08 0.17,-0.12 0.28,-0.12l0.91,0c0.11,0 0.2,0.04 0.28,0.12c0.08,0.07 0.13,0.16 0.13,0.27l0,4.94l7.42,0l0,-4.94z" fill="#ffffff" id="svg_41"/>
  <path d="m165.56,295.42c0,-0.11 0.04,-0.2 0.1,-0.27c0.07,-0.08 0.17,-0.12 0.29,-0.12l0.92,0c0.1,0 0.2,0.04 0.28,0.11c0.08,0.07 0.12,0.16 0.12,0.28l0,12.31c0,0.26 -0.13,0.39 -0.4,0.39l-0.92,0c-0.26,0 -0.39,-0.13 -0.39,-0.39l0,-12.31z" fill="#ffffff" id="svg_42"/>
  <path d="m178.93,302.72c0,-0.25 0.13,-0.38 0.38,-0.38l0.91,0c0.11,0 0.2,0.03 0.28,0.1c0.09,0.06 0.13,0.16 0.13,0.28l0,3.94c0,0.07 -0.02,0.14 -0.05,0.2c-0.03,0.06 -0.08,0.11 -0.15,0.15l-0.07,0.06c-0.55,0.4 -1.16,0.7 -1.82,0.92c-0.66,0.21 -1.38,0.32 -2.15,0.32c-0.62,0 -1.22,-0.08 -1.79,-0.24c-0.57,-0.16 -1.11,-0.38 -1.61,-0.68c-0.49,-0.29 -0.94,-0.64 -1.35,-1.05c-0.41,-0.41 -0.76,-0.86 -1.05,-1.36c-0.29,-0.49 -0.52,-1.03 -0.67,-1.6c-0.16,-0.57 -0.24,-1.17 -0.24,-1.79c0,-0.62 0.08,-1.21 0.24,-1.78c0.15,-0.57 0.38,-1.11 0.67,-1.61c0.3,-0.49 0.65,-0.95 1.06,-1.36c0.41,-0.41 0.86,-0.76 1.35,-1.06c0.5,-0.29 1.03,-0.52 1.61,-0.68c0.57,-0.16 1.17,-0.24 1.79,-0.24c0.72,0 1.42,0.11 2.09,0.33c0.67,0.22 1.29,0.53 1.87,0.94c0.07,0.05 0.12,0.11 0.16,0.17c0.04,0.06 0.06,0.12 0.06,0.19c0,0.08 -0.02,0.15 -0.07,0.21l-0.47,0.77c-0.09,0.14 -0.2,0.22 -0.3,0.22c-0.04,0 -0.09,-0.02 -0.14,-0.04c-0.05,-0.02 -0.11,-0.05 -0.17,-0.1c-0.43,-0.3 -0.88,-0.53 -1.38,-0.71c-0.49,-0.17 -1.03,-0.26 -1.59,-0.26c-0.73,0 -1.4,0.14 -2.02,0.42c-0.62,0.27 -1.16,0.64 -1.61,1.11c-0.46,0.46 -0.82,1 -1.07,1.6c-0.26,0.61 -0.39,1.24 -0.39,1.9c0,0.69 0.13,1.35 0.39,1.96c0.27,0.6 0.63,1.13 1.08,1.58c0.45,0.45 0.98,0.8 1.58,1.06c0.6,0.26 1.24,0.39 1.92,0.39c0.43,0 0.86,-0.07 1.29,-0.21c0.42,-0.14 0.86,-0.3 1.3,-0.49l0,-3.18z" fill="#ffffff" id="svg_43"/>
  <path d="m192.23,295.42c0,-0.11 0.03,-0.2 0.1,-0.27c0.07,-0.08 0.17,-0.12 0.29,-0.12l0.88,0c0.11,0 0.21,0.04 0.29,0.11c0.09,0.07 0.14,0.16 0.14,0.28l0,12.31c0,0.26 -0.14,0.39 -0.43,0.39l-0.88,0c-0.26,0 -0.39,-0.13 -0.39,-0.39l0,-5.66l-7.43,0l0,5.66c0,0.26 -0.14,0.39 -0.42,0.39l-0.89,0c-0.26,0 -0.39,-0.13 -0.39,-0.39l0,-12.31c0,-0.11 0.04,-0.2 0.11,-0.27c0.07,-0.08 0.16,-0.12 0.28,-0.12l0.91,0c0.1,0 0.2,0.04 0.28,0.12c0.08,0.07 0.12,0.16 0.12,0.27l0,4.94l7.43,0l0,-4.94z" fill="#ffffff" id="svg_44"/>
  <path d="m205.56,295.03c0.28,0 0.41,0.14 0.41,0.43l0,0.87c0,0.11 -0.03,0.21 -0.1,0.29c-0.07,0.08 -0.18,0.12 -0.32,0.12l-7.1,0l0,3.62l5.58,0c0.11,0 0.2,0.03 0.28,0.1c0.07,0.06 0.11,0.16 0.11,0.31l0,0.9c0,0.1 -0.03,0.2 -0.1,0.28c-0.06,0.08 -0.16,0.12 -0.29,0.12l-5.58,0l0,4.34l7.13,0c0.27,0 0.41,0.13 0.41,0.41l0,0.91c0,0.26 -0.13,0.39 -0.39,0.39l-8.47,0c-0.26,0 -0.39,-0.13 -0.39,-0.37l0,-12.31c0,-0.27 0.13,-0.41 0.39,-0.41l8.43,0z" fill="#ffffff" id="svg_45"/>
  <path d="m216,299.2c0,-0.32 -0.06,-0.63 -0.19,-0.93c-0.12,-0.3 -0.29,-0.57 -0.51,-0.8c-0.23,-0.22 -0.49,-0.41 -0.79,-0.55c-0.3,-0.13 -0.63,-0.2 -0.98,-0.2l-3.76,0l0,4.97l3.79,0c0.35,0 0.67,-0.07 0.97,-0.21c0.3,-0.13 0.56,-0.31 0.78,-0.54c0.22,-0.23 0.39,-0.5 0.51,-0.8c0.12,-0.3 0.18,-0.61 0.18,-0.94zm-7.94,-3.74c0,-0.28 0.13,-0.43 0.39,-0.43l5.08,0c0.59,0 1.13,0.11 1.64,0.34c0.5,0.21 0.94,0.51 1.32,0.89c0.38,0.38 0.67,0.83 0.89,1.33c0.21,0.51 0.32,1.05 0.32,1.63c0,0.41 -0.06,0.8 -0.17,1.18c-0.12,0.38 -0.28,0.73 -0.49,1.06c-0.2,0.32 -0.45,0.61 -0.74,0.86c-0.28,0.26 -0.6,0.47 -0.96,0.64l2.33,4.77l0,0.11c0,0.19 -0.11,0.28 -0.33,0.28l-1.06,0c-0.18,0 -0.33,-0.11 -0.43,-0.33l-2.11,-4.44c-0.05,0.01 -0.1,0.01 -0.15,0.01c-0.06,0 -0.14,0 -0.24,0c-0.1,0.01 -0.24,0.01 -0.41,0.01l-3.17,0l0,4.36c0,0.26 -0.14,0.39 -0.41,0.39l-0.91,0c-0.26,0 -0.39,-0.13 -0.39,-0.39l0,-12.27z" fill="#ffffff" id="svg_46"/>
  <path d="m234.52,295.03c0.27,0 0.41,0.14 0.41,0.43l0,0.87c0,0.11 -0.04,0.21 -0.11,0.29c-0.06,0.08 -0.17,0.12 -0.32,0.12l-7.1,0l0,3.62l5.59,0c0.1,0 0.19,0.03 0.27,0.1c0.08,0.06 0.12,0.16 0.12,0.31l0,0.9c0,0.1 -0.04,0.2 -0.1,0.28c-0.07,0.08 -0.16,0.12 -0.29,0.12l-5.59,0l0,4.34l7.14,0c0.27,0 0.4,0.13 0.4,0.41l0,0.91c0,0.26 -0.13,0.39 -0.38,0.39l-8.48,0c-0.26,0 -0.39,-0.13 -0.39,-0.37l0,-12.31c0,-0.27 0.13,-0.41 0.39,-0.41l8.44,0z" fill="#ffffff" id="svg_47"/>
  <path d="m241.48,306.43c0.72,0 1.38,-0.13 1.98,-0.39c0.61,-0.27 1.13,-0.62 1.57,-1.07c0.43,-0.45 0.78,-0.98 1.02,-1.58c0.25,-0.59 0.37,-1.23 0.37,-1.9c0,-0.72 -0.13,-1.37 -0.39,-1.95c-0.25,-0.59 -0.6,-1.09 -1.05,-1.51c-0.44,-0.42 -0.96,-0.74 -1.55,-0.97c-0.6,-0.23 -1.23,-0.34 -1.91,-0.34l-2.82,0l0,9.71l2.78,0zm-4.48,-10.97c0,-0.28 0.14,-0.43 0.41,-0.43l4.11,0c0.63,0 1.23,0.08 1.8,0.23c0.57,0.16 1.1,0.37 1.59,0.66c0.48,0.28 0.92,0.62 1.32,1.02c0.39,0.4 0.73,0.84 1.01,1.32c0.28,0.49 0.49,1.01 0.64,1.57c0.16,0.56 0.23,1.15 0.23,1.76c0,0.6 -0.08,1.18 -0.23,1.74c-0.16,0.55 -0.38,1.07 -0.66,1.56c-0.29,0.48 -0.63,0.92 -1.03,1.32c-0.4,0.4 -0.84,0.73 -1.33,1.02c-0.48,0.28 -1.01,0.5 -1.57,0.65c-0.57,0.16 -1.16,0.24 -1.77,0.24l-4.11,0c-0.1,0 -0.2,-0.03 -0.28,-0.08c-0.08,-0.05 -0.13,-0.15 -0.13,-0.29l0,-12.29z" fill="#ffffff" id="svg_48"/>
  <path d="m252.16,302.71c0,0.55 0.08,1.07 0.24,1.55c0.16,0.49 0.4,0.91 0.71,1.26c0.32,0.36 0.7,0.63 1.15,0.84c0.45,0.2 0.97,0.3 1.55,0.3c0.62,0 1.17,-0.1 1.63,-0.31c0.46,-0.2 0.85,-0.48 1.15,-0.84c0.3,-0.35 0.53,-0.77 0.68,-1.25c0.15,-0.49 0.22,-1 0.22,-1.55l0,-7.29c0,-0.1 0.04,-0.2 0.12,-0.27c0.08,-0.08 0.18,-0.12 0.3,-0.12l0.84,0c0.12,0 0.22,0.04 0.31,0.11c0.1,0.07 0.14,0.16 0.14,0.28l0,7.52c0,0.8 -0.14,1.52 -0.42,2.19c-0.28,0.66 -0.67,1.22 -1.16,1.69c-0.49,0.48 -1.06,0.85 -1.72,1.11c-0.65,0.26 -1.35,0.4 -2.09,0.4c-0.74,0 -1.43,-0.14 -2.09,-0.43c-0.65,-0.28 -1.22,-0.66 -1.71,-1.15c-0.49,-0.49 -0.88,-1.07 -1.16,-1.72c-0.28,-0.65 -0.42,-1.34 -0.42,-2.09l0,-7.52c0,-0.09 0.03,-0.17 0.1,-0.26c0.07,-0.08 0.16,-0.13 0.27,-0.13l0.94,0c0.09,0 0.18,0.04 0.27,0.12c0.1,0.07 0.15,0.17 0.15,0.27l0,7.29z" fill="#ffffff" id="svg_49"/>
  <path d="m274.03,296.13c0.07,0.05 0.12,0.11 0.16,0.17c0.04,0.06 0.06,0.12 0.06,0.19c0,0.08 -0.02,0.15 -0.07,0.21l-0.47,0.78c-0.1,0.14 -0.2,0.21 -0.31,0.21c-0.04,0 -0.08,-0.01 -0.13,-0.04c-0.05,-0.02 -0.11,-0.05 -0.17,-0.1c-0.43,-0.3 -0.87,-0.53 -1.34,-0.68c-0.46,-0.16 -0.96,-0.26 -1.47,-0.28c-0.76,0 -1.46,0.13 -2.1,0.4c-0.64,0.28 -1.19,0.64 -1.66,1.11c-0.47,0.46 -0.83,0.99 -1.1,1.6c-0.26,0.61 -0.39,1.25 -0.39,1.92c0,0.72 0.13,1.38 0.4,1.99c0.27,0.61 0.63,1.13 1.09,1.57c0.45,0.44 0.98,0.79 1.59,1.03c0.6,0.25 1.23,0.37 1.89,0.37c0.24,0 0.49,-0.01 0.73,-0.05c0.24,-0.03 0.48,-0.09 0.73,-0.18c0.25,-0.09 0.51,-0.19 0.78,-0.33c0.27,-0.13 0.56,-0.29 0.87,-0.48c0.11,-0.07 0.2,-0.1 0.27,-0.1c0.1,0 0.2,0.07 0.29,0.22l0.5,0.83c0.04,0.07 0.06,0.14 0.06,0.21c0,0.14 -0.07,0.25 -0.21,0.33c-0.55,0.4 -1.16,0.71 -1.82,0.94c-0.67,0.23 -1.38,0.34 -2.15,0.34c-0.63,0 -1.22,-0.08 -1.8,-0.24c-0.57,-0.16 -1.1,-0.38 -1.6,-0.68c-0.49,-0.29 -0.95,-0.64 -1.35,-1.05c-0.41,-0.41 -0.76,-0.86 -1.05,-1.36c-0.29,-0.49 -0.52,-1.03 -0.68,-1.6c-0.16,-0.57 -0.23,-1.17 -0.23,-1.79c0,-0.62 0.07,-1.21 0.23,-1.79c0.16,-0.57 0.39,-1.1 0.68,-1.6c0.3,-0.5 0.64,-0.96 1.05,-1.37c0.41,-0.41 0.87,-0.76 1.36,-1.05c0.5,-0.29 1.04,-0.52 1.61,-0.68c0.58,-0.16 1.17,-0.24 1.79,-0.24c0.74,0 1.43,0.11 2.09,0.33c0.66,0.21 1.28,0.53 1.87,0.94z" fill="#ffffff" id="svg_50"/>
  <path d="m279.1,303.66l4.8,0l-2.37,-6.03l-2.43,6.03zm-1.64,4.13c-0.04,0.1 -0.1,0.18 -0.18,0.24c-0.08,0.06 -0.17,0.09 -0.29,0.09l-0.93,0c-0.27,0 -0.41,-0.11 -0.41,-0.31c0,-0.05 0,-0.08 0,-0.11c0.01,-0.02 0.01,-0.05 0.02,-0.07c0,-0.02 0.01,-0.04 0.02,-0.06l5.08,-12.21c0.01,-0.03 0.02,-0.06 0.04,-0.1c0.02,-0.04 0.04,-0.07 0.07,-0.11c0.03,-0.03 0.07,-0.06 0.13,-0.08c0.06,-0.02 0.13,-0.04 0.23,-0.04l0.58,0c0.08,0 0.16,0.02 0.21,0.04c0.06,0.02 0.1,0.05 0.13,0.08c0.03,0.04 0.05,0.07 0.07,0.11c0.02,0.04 0.03,0.07 0.04,0.1l5.04,12.21c0.01,0.03 0.01,0.06 0.02,0.09c0.01,0.03 0.01,0.05 0.02,0.08c0,0.03 0.01,0.05 0.01,0.07c0,0.2 -0.14,0.31 -0.41,0.31l-0.93,0c-0.12,0 -0.21,-0.03 -0.29,-0.09c-0.08,-0.06 -0.14,-0.14 -0.18,-0.24l-0.97,-2.42l-6.18,0c-0.21,0.52 -0.39,0.99 -0.57,1.42c-0.17,0.42 -0.29,0.75 -0.37,1z" fill="#ffffff" id="svg_51"/>
  <path d="m296.13,295.03c0.11,0 0.2,0.04 0.29,0.1c0.08,0.06 0.13,0.16 0.14,0.29l0,0.89c0,0.12 -0.03,0.22 -0.1,0.31c-0.07,0.08 -0.18,0.12 -0.33,0.12l-3.66,0l0,10.97c0,0.11 -0.04,0.2 -0.11,0.28c-0.07,0.08 -0.17,0.13 -0.3,0.13l-0.89,0c-0.1,0 -0.2,-0.04 -0.28,-0.12c-0.08,-0.08 -0.12,-0.17 -0.12,-0.29l0,-10.97l-3.69,0c-0.11,0 -0.21,-0.03 -0.28,-0.1c-0.08,-0.07 -0.12,-0.18 -0.12,-0.33l0,-0.89c0,-0.12 0.04,-0.21 0.12,-0.28c0.07,-0.07 0.17,-0.11 0.28,-0.11l9.05,0z" fill="#ffffff" id="svg_52"/>
  <path d="m298.55,295.42c0,-0.11 0.03,-0.2 0.1,-0.27c0.06,-0.08 0.16,-0.12 0.28,-0.12l0.92,0c0.1,0 0.2,0.04 0.28,0.11c0.08,0.07 0.12,0.16 0.12,0.28l0,12.31c0,0.26 -0.13,0.39 -0.4,0.39l-0.92,0c-0.26,0 -0.38,-0.13 -0.38,-0.39l0,-12.31z" fill="#ffffff" id="svg_53"/>
  <path d="m304.38,301.56c0,0.46 0.06,0.91 0.18,1.34c0.12,0.42 0.29,0.82 0.5,1.19c0.22,0.38 0.48,0.72 0.79,1.02c0.3,0.31 0.64,0.57 1.02,0.79c0.37,0.21 0.77,0.38 1.19,0.5c0.43,0.12 0.87,0.18 1.34,0.18c0.46,0 0.9,-0.06 1.33,-0.18c0.43,-0.12 0.83,-0.29 1.19,-0.5c0.38,-0.22 0.71,-0.48 1.02,-0.79c0.3,-0.3 0.56,-0.64 0.78,-1.02c0.22,-0.37 0.39,-0.77 0.51,-1.19c0.12,-0.43 0.18,-0.88 0.18,-1.34c0,-0.69 -0.13,-1.34 -0.4,-1.95c-0.26,-0.61 -0.62,-1.14 -1.07,-1.59c-0.45,-0.45 -0.98,-0.81 -1.59,-1.08c-0.61,-0.26 -1.26,-0.39 -1.95,-0.39c-0.47,0 -0.91,0.06 -1.34,0.18c-0.42,0.12 -0.82,0.29 -1.19,0.51c-0.38,0.21 -0.72,0.47 -1.02,0.78c-0.31,0.31 -0.57,0.64 -0.79,1.02c-0.21,0.36 -0.38,0.76 -0.5,1.19c-0.12,0.43 -0.18,0.87 -0.18,1.33zm5.03,-6.7c0.62,0 1.22,0.08 1.79,0.24c0.57,0.15 1.11,0.38 1.6,0.67c0.5,0.3 0.95,0.65 1.36,1.06c0.41,0.41 0.77,0.86 1.05,1.36c0.3,0.5 0.52,1.04 0.68,1.62c0.17,0.57 0.25,1.17 0.25,1.8c0,0.61 -0.08,1.21 -0.24,1.78c-0.16,0.57 -0.39,1.11 -0.68,1.6c-0.29,0.5 -0.64,0.95 -1.05,1.36c-0.41,0.41 -0.86,0.76 -1.36,1.05c-0.5,0.29 -1.04,0.51 -1.62,0.67c-0.57,0.16 -1.17,0.24 -1.79,0.24c-0.63,0 -1.22,-0.08 -1.79,-0.24c-0.58,-0.16 -1.11,-0.38 -1.61,-0.68c-0.5,-0.29 -0.95,-0.64 -1.36,-1.05c-0.4,-0.41 -0.75,-0.86 -1.04,-1.36c-0.29,-0.49 -0.52,-1.03 -0.68,-1.6c-0.16,-0.57 -0.24,-1.17 -0.24,-1.79c0,-0.62 0.08,-1.21 0.24,-1.79c0.16,-0.57 0.39,-1.1 0.68,-1.6c0.29,-0.5 0.65,-0.96 1.05,-1.37c0.41,-0.41 0.87,-0.76 1.36,-1.05c0.5,-0.29 1.04,-0.52 1.61,-0.68c0.57,-0.16 1.17,-0.24 1.79,-0.24z" fill="#ffffff" id="svg_54"/>
  <path d="m328.3,308.12c-0.14,0 -0.25,-0.07 -0.34,-0.2l-7.69,-10.31l0,10.12c0,0.26 -0.14,0.39 -0.41,0.39l-0.89,0c-0.26,0 -0.39,-0.13 -0.39,-0.39l0,-12.29c0,-0.12 0.04,-0.22 0.11,-0.29c0.07,-0.08 0.17,-0.12 0.28,-0.12l1.18,0c0.16,0 0.28,0.07 0.37,0.2l7.5,9.96l0,-9.83c0.03,-0.22 0.16,-0.33 0.39,-0.33l0.89,0c0.1,0 0.2,0.04 0.29,0.11c0.1,0.07 0.14,0.16 0.14,0.28l0,12.31c0,0.26 -0.14,0.39 -0.43,0.39l-1,0z" fill="#ffffff" id="svg_55"/>
 </g>
</svg>