<?xml version="1.0"?>
<svg width="410" height="410" xmlns="http://www.w3.org/2000/svg" xmlns:svg="http://www.w3.org/2000/svg">
 <defs>
  <clipPath id="clip0_288_911">
   <rect fill="white" height="410" id="svg_1" width="410"/>
  </clipPath>
 </defs>
 <g class="layer">
  <title>Layer 1</title>
  <g clip-path="url(#clip0_288_911)" id="svg_2">
   <path d="m0,0l410,0l0,410l-410,0l0,-410z" fill="#e70000" id="svg_3"/>
   <path d="m356.29,194.83c-9.84,-9.92 -22.06,-14.1 -40.26,-14.1l-39.12,0c-7.13,0 -11.07,-3.77 -10.98,-10.99l0,-21.16c-0.09,-7.21 3.85,-10.98 10.98,-10.98l88.48,0l0,-47.89l-93.4,0c-34.6,-0.33 -54.53,19.35 -54.12,54.04l0,31.16c0,17.63 3.86,28.7 13.45,38.29c9.43,9.51 20.99,13.53 38.46,13.53l41.16,0c7.14,0 11.07,3.77 10.99,10.99l0,22.96c0,3.69 -0.9,6.23 -2.79,8.2c-1.96,1.97 -4.42,2.79 -8.2,2.79l-124.23,0l-25.33,-41.58c28.45,-0.33 45.51,-16.97 44.93,-46.16l0,-40.02c0,-18.45 -4.02,-30.01 -14.02,-39.93c-9.84,-9.93 -21.81,-14.27 -40.1,-14.27l-105.94,0l0,229.68l48.54,0l0,-181.79l52.48,0c3.69,0 6.23,0.9 8.2,2.78c1.97,1.97 2.79,4.43 2.79,8.2l0,29.28c0.08,7.21 -3.85,10.99 -10.99,10.99c-15.09,0.32 -29.85,-2.79 -38.7,11.39c-6.64,10.34 -4.27,25.01 2.13,35.18c6.81,12.14 43.79,77.9 43.79,77.9c2.21,3.94 6.31,6.15 11.31,6.15l150.31,0c34.69,0.49 54.45,-19.51 54.12,-54.12l0,-30.5c0.08,-18.45 -4.02,-30.1 -13.94,-40.02z" fill="#ffffff" id="svg_4" transform="matrix(1, 0, 0, 1, 0, 0)"/>
  </g>
 </g>
</svg>